<?xml version="1.0" standalone="no"?>
<!DOCTYPE svg PUBLIC "-//W3C//DTD SVG 20010904//EN"
 "http://www.w3.org/TR/2001/REC-SVG-20010904/DTD/svg10.dtd">
<svg version="1.0" xmlns="http://www.w3.org/2000/svg"
 width="152.000000pt" height="152.000000pt" viewBox="0 0 152.000000 152.000000"
 preserveAspectRatio="xMidYMid meet">
<metadata>
Created by potrace 1.14, written by Peter Selinger 2001-2017
</metadata>
<g transform="translate(0.000000,152.000000) scale(0.100000,-0.100000)"
fill="#000000" stroke="none">
<path d="M775 1490 c-140 -9 -218 -24 -330 -61 -197 -64 -367 -196 -421 -324
-23 -55 -18 -70 26 -90 21 -10 64 -43 95 -74 63 -64 171 -210 180 -244 3 -12
15 -43 27 -69 32 -71 23 -87 -74 -135 -104 -52 -167 -114 -175 -170 -4 -34 -1
-45 26 -76 46 -52 120 -96 176 -104 39 -5 59 -16 101 -54 56 -51 91 -72 137
-83 24 -6 27 -4 27 18 0 41 27 59 78 52 25 -3 50 -10 56 -15 25 -20 83 -32
108 -22 35 13 147 119 208 196 33 41 68 72 101 90 66 34 171 109 219 157 75
74 116 211 92 306 -15 55 -10 75 21 90 18 8 13 10 -30 9 -43 -2 -55 2 -72 22
-25 28 -26 49 -6 78 l15 21 -38 -18 c-60 -30 -111 -41 -207 -45 -49 -2 -108
-6 -130 -10 -36 -6 -42 -4 -52 16 -35 72 -50 214 -33 309 4 25 13 72 19 105 6
33 13 72 16 86 5 20 1 28 -20 37 -14 7 -27 11 -28 10 -1 0 -51 -4 -112 -8z"/>
</g>
</svg>
