<?xml version="1.0" standalone="no"?>
<!DOCTYPE svg PUBLIC "-//W3C//DTD SVG 20010904//EN"
 "http://www.w3.org/TR/2001/REC-SVG-20010904/DTD/svg10.dtd">
<svg version="1.0" xmlns="http://www.w3.org/2000/svg"
 width="520.000000pt" height="520.000000pt" viewBox="0 0 520.000000 520.000000"
 preserveAspectRatio="xMidYMid meet">
<metadata>
Created by potrace 1.14, written by Peter Selinger 2001-2017
</metadata>
<g transform="translate(0.000000,520.000000) scale(0.100000,-0.100000)"
fill="#000000" stroke="none">
<path d="M0 2600 l0 -2600 2600 0 2600 0 0 2600 0 2600 -2600 0 -2600 0 0
-2600z m2717 1335 c78 -74 92 -77 178 -31 38 20 79 36 89 36 20 0 66 -36 66
-51 0 -21 64 -100 86 -105 14 -4 55 1 92 10 37 9 74 16 83 16 25 0 47 -31 58
-82 24 -106 51 -128 159 -128 96 0 103 -7 111 -117 3 -49 12 -97 18 -105 7 -7
40 -22 75 -32 115 -34 119 -40 96 -161 l-13 -65 -98 0 -98 0 -17 31 c-28 52
-126 181 -180 235 -294 299 -753 403 -1152 261 -85 -30 -201 -87 -231 -113 -8
-8 -19 -14 -23 -14 -8 0 -79 -57 -145 -115 -48 -43 -147 -169 -183 -232 l-30
-53 -97 0 -97 0 -17 68 c-29 115 -27 118 93 157 87 28 97 42 102 142 4 105 12
113 111 113 99 0 120 15 147 107 33 112 36 113 172 83 72 -16 90 -6 149 85 52
78 70 82 151 33 53 -32 121 -43 136 -23 23 32 114 105 131 105 11 0 46 -25 78
-55z m-56 -437 c11 -27 21 -34 49 -36 50 -5 56 -17 21 -43 -28 -20 -30 -25
-24 -67 l6 -44 -38 20 c-38 19 -39 19 -72 -1 -19 -11 -36 -17 -38 -15 -3 2 0
20 5 38 9 31 7 37 -20 65 -34 35 -31 45 16 45 26 0 34 6 48 35 9 19 20 35 25
35 4 0 14 -15 22 -32z m-377 -138 c12 0 31 -3 44 -6 22 -6 22 -7 -9 -36 -28
-27 -30 -35 -25 -69 3 -22 4 -39 1 -39 -2 0 -20 7 -39 16 -33 16 -36 16 -69
-3 l-34 -20 5 46 c4 43 1 50 -27 74 l-31 26 46 7 c41 6 48 11 61 42 l15 36 21
-37 c13 -24 28 -37 41 -37z m820 36 c12 -29 20 -34 62 -41 l48 -7 -33 -25
c-31 -24 -32 -28 -26 -75 l7 -48 -38 22 -37 22 -39 -22 -39 -21 7 45 c6 42 4
48 -25 74 l-31 29 44 6 c37 6 47 13 62 41 10 19 20 34 21 34 2 0 9 -15 17 -34z
m990 -398 c-3 -18 -10 -42 -14 -53 -7 -18 -8 -18 -15 5 -23 73 -105 93 -156
39 -34 -37 -37 -76 -9 -112 39 -49 122 -44 151 9 12 24 14 24 26 8 7 -10 13
-29 13 -44 0 -29 -29 -77 -39 -62 -3 5 -40 11 -81 13 l-75 4 -3 -262 -2 -263
80 0 80 0 0 220 c0 184 2 220 14 220 12 0 15 -40 19 -237 2 -131 8 -250 12
-265 l7 -28 -1467 0 c-1393 0 -1467 1 -1460 18 4 9 10 27 12 38 6 29 54 34
304 34 l196 0 7 46 c3 26 6 60 6 75 l0 29 -91 0 c-69 0 -88 3 -83 13 4 6 -2 4
-13 -5 -18 -16 -73 -26 -73 -13 0 3 54 113 119 244 108 214 122 238 143 236
13 -1 15 0 6 2 -22 5 -22 7 -3 43 l16 30 -260 0 c-234 0 -260 -2 -263 -17 -2
-9 -8 2 -14 25 l-11 42 1464 0 1465 0 -8 -32z m-70 -24 c19 -19 20 -31 4 -37
-8 -3 -6 -6 5 -6 23 -1 22 -15 -6 -47 -44 -51 -117 -22 -117 46 0 38 24 60 65
60 18 0 41 -7 49 -16z m-2355 -41 l-9 -28 -203 0 -202 1 198 -3 c121 -2 197
-7 197 -13 0 -6 -52 -114 -116 -241 -63 -127 -113 -233 -110 -236 2 -3 58 -7
124 -10 l120 -6 6 -45 c3 -25 2 -50 -3 -55 -9 -9 -435 -6 -445 4 -3 3 37 91
90 195 53 104 109 221 125 259 17 39 33 76 36 83 4 9 -24 12 -121 12 l-126 0
0 55 0 55 224 0 225 0 -10 -27z m-226 -138 l-17 -35 -88 0 c-64 0 -88 3 -88
13 0 6 -3 22 -6 35 -6 22 -6 22 105 22 l111 0 -17 -35z m2582 -22 c-15 -37
-17 -53 -6 -53 8 0 11 -63 11 -215 l0 -215 -32 0 c-18 0 -43 3 -55 6 l-23 6 0
239 0 238 28 4 c67 10 84 8 77 -10z m-2635 -65 c-27 -63 -152 -306 -145 -283
63 193 62 182 27 293 l-11 32 74 0 74 0 -19 -42z m270 -606 c0 -9 52 -90 94
-147 50 -67 192 -201 263 -248 123 -81 280 -147 428 -178 77 -17 313 -17 390
0 273 58 504 201 679 420 29 36 65 87 81 114 l27 47 98 0 97 0 7 -47 c23 -162
28 -150 -80 -182 -40 -12 -78 -29 -85 -38 -8 -9 -17 -54 -20 -106 -8 -111 -14
-117 -117 -117 -40 0 -82 -5 -94 -11 -23 -13 -57 -83 -58 -120 0 -15 -9 -38
-21 -53 -24 -30 -56 -33 -119 -11 -86 30 -132 9 -173 -78 -37 -77 -74 -83
-165 -27 -70 43 -98 40 -152 -16 -53 -54 -92 -76 -117 -67 -10 3 -44 30 -75
60 -68 64 -87 66 -172 18 -93 -52 -111 -47 -161 40 -51 86 -85 100 -170 70
-58 -21 -102 -19 -115 5 -6 11 -20 50 -31 87 -28 92 -42 103 -138 103 -106 0
-113 6 -119 111 -5 107 -21 126 -123 154 -93 26 -98 37 -73 145 l19 80 98 0
c53 0 97 -4 97 -8z m515 -81 c11 -19 63 -22 95 -6 l32 17 -7 -42 c-6 -37 -4
-45 20 -70 l27 -28 -40 -7 c-34 -5 -42 -12 -58 -47 l-18 -41 -18 41 c-16 37
-23 41 -63 47 l-44 7 31 26 c27 23 30 30 25 69 -4 40 4 56 18 34z m945 -8 l41
16 -6 -43 c-6 -39 -4 -45 24 -68 l30 -26 -43 -6 c-38 -6 -45 -11 -61 -46 l-18
-40 -20 39 c-17 33 -27 41 -59 46 l-40 7 27 28 c24 25 27 34 21 69 l-6 41 35
-17 c32 -15 37 -15 75 0z m-468 -112 c20 -7 34 -5 62 10 l35 19 -6 -33 c-3
-17 -6 -35 -7 -38 0 -4 11 -20 26 -37 29 -32 23 -42 -26 -42 -16 0 -28 -12
-43 -42 l-21 -43 -16 38 c-17 39 -20 41 -70 52 l-29 6 26 27 c23 24 25 33 20
72 -5 38 -4 43 8 33 8 -6 26 -16 41 -22z"/>
<path d="M2206 2993 c-35 -35 -41 -64 -21 -102 31 -62 120 -66 155 -8 28 45
25 78 -8 110 -38 37 -89 37 -126 0z m109 -19 c9 -9 14 -22 11 -30 -3 -7 0 -14
7 -17 20 -6 -8 -53 -40 -64 -70 -25 -119 54 -71 115 15 17 74 15 93 -4z"/>
<path d="M1850 2631 c0 -193 3 -352 8 -354 4 -3 40 -2 80 0 l72 6 0 348 0 349
-80 0 -80 0 0 -349z m140 -6 l0 -335 -32 0 c-18 0 -43 3 -55 6 l-23 6 0 329 0
329 55 0 55 0 0 -335z"/>
<path d="M1928 2903 c12 -2 30 -2 40 0 9 3 -1 5 -23 4 -22 0 -30 -2 -17 -4z"/>
<path d="M1725 2859 c-9 -17 -15 -33 -13 -35 3 -2 12 12 21 31 21 43 13 47 -8
4z"/>
<path d="M2386 2845 c-3 -9 -6 -22 -5 -28 0 -7 5 -1 10 12 5 13 8 26 5 28 -2
2 -6 -3 -10 -12z"/>
<path d="M2190 2545 l0 -265 75 0 75 0 0 204 c0 112 2 223 5 247 3 24 2 49 -2
55 -4 6 -41 14 -80 18 l-73 6 0 -265z m135 173 c3 -40 5 -152 3 -248 l-3 -175
-24 -3 c-13 -2 -39 -1 -57 3 l-34 6 0 239 0 239 28 4 c82 12 80 14 87 -65z"/>
<path d="M2224 2510 c0 -113 2 -159 3 -102 2 56 2 148 0 205 -1 56 -3 10 -3
-103z"/>
<path d="M2675 2792 c-63 -29 -104 -70 -136 -133 -29 -57 -29 -61 -29 -219 l0
-160 74 0 75 0 3 156 3 156 37 34 c51 46 102 47 153 3 l35 -31 0 -159 0 -159
76 0 75 0 -3 183 -3 182 -34 48 c-19 26 -57 62 -85 80 -44 28 -61 32 -126 35
-57 2 -85 -2 -115 -16z m205 -29 c43 -17 82 -52 73 -66 -3 -6 -1 -7 4 -4 6 4
16 0 23 -8 7 -8 9 -15 6 -15 -4 0 -1 -7 8 -15 27 -27 36 -86 36 -227 l0 -138
-42 0 c-68 0 -70 3 -68 126 2 163 -15 210 -87 245 -46 22 -88 20 -131 -9 -41
-26 -47 -51 -52 -207 l-5 -150 -29 -3 c-15 -2 -39 -1 -52 2 l-24 6 0 158 c0
153 1 158 28 204 38 65 85 100 151 114 61 13 106 10 161 -13z"/>
<path d="M2803 2733 c9 -2 23 -2 30 0 6 3 -1 5 -18 5 -16 0 -22 -2 -12 -5z"/>
<path d="M2725 2720 c-13 -6 -15 -9 -5 -9 8 0 22 4 30 9 18 12 2 12 -25 0z"/>
<path d="M2868 2723 c7 -3 16 -2 19 1 4 3 -2 6 -13 5 -11 0 -14 -3 -6 -6z"/>
<path d="M2654 2678 l-19 -23 23 19 c12 11 22 21 22 23 0 8 -8 2 -26 -19z"/>
<path d="M2585 2604 c-9 -15 -12 -23 -6 -20 11 7 35 46 28 46 -3 0 -12 -12
-22 -26z"/>
<path d="M3365 2792 c-57 -27 -101 -67 -133 -121 -26 -45 -27 -52 -30 -218 -3
-150 -2 -173 12 -173 10 0 16 -12 19 -37 l4 -38 1 38 2 37 55 0 55 0 0 145 c0
111 4 153 15 175 35 68 135 79 188 20 27 -30 27 -30 27 -185 l0 -155 75 0 75
0 0 169 c0 165 -1 170 -28 222 -20 40 -43 65 -86 94 -53 37 -64 40 -134 43
-59 2 -86 -2 -117 -16z m200 -27 c45 -18 92 -62 123 -114 26 -44 27 -53 30
-203 l4 -158 -39 0 c-83 0 -83 0 -83 114 0 75 3 97 11 86 9 -12 9 -11 4 5 -4
11 -11 37 -15 59 -22 112 -141 160 -218 88 -41 -38 -52 -86 -52 -229 l0 -123
-32 0 c-18 0 -44 3 -56 7 -24 6 -24 6 -20 152 3 124 7 153 25 194 12 26 28 53
36 60 7 6 25 23 40 36 50 45 165 58 242 26z"/>
<path d="M3493 2733 c9 -2 23 -2 30 0 6 3 -1 5 -18 5 -16 0 -22 -2 -12 -5z"/>
<path d="M3415 2720 c-13 -5 -14 -9 -5 -9 8 0 24 4 35 9 13 5 14 9 5 9 -8 0
-24 -4 -35 -9z"/>
<path d="M3565 2720 c11 -5 27 -9 35 -9 9 0 8 4 -5 9 -11 5 -27 9 -35 9 -9 0
-8 -4 5 -9z"/>
<path d="M3309 2653 l-24 -28 28 24 c25 23 32 31 24 31 -2 0 -14 -12 -28 -27z"/>
<path d="M3249 2553 c-5 -14 -8 -30 -6 -36 1 -5 8 7 14 27 13 42 7 49 -8 9z"/>
<path d="M3234 2400 c0 -52 1 -74 3 -47 2 26 2 68 0 95 -2 26 -3 4 -3 -48z"/>
<path d="M1670 2749 c-7 -11 -10 -23 -7 -25 2 -2 9 7 15 21 14 30 7 33 -8 4z"/>
<path d="M1615 2639 c-9 -17 -15 -33 -13 -35 3 -2 12 12 21 31 21 43 13 47 -8
4z"/>
<path d="M3498 2583 c7 -3 16 -2 19 1 4 3 -2 6 -13 5 -11 0 -14 -3 -6 -6z"/>
<path d="M2840 2576 c0 -2 9 -6 20 -9 11 -3 18 -1 14 4 -5 9 -34 13 -34 5z"/>
<path d="M1565 2539 c-9 -17 -15 -33 -13 -35 3 -2 12 12 21 31 21 43 13 47 -8
4z"/>
<path d="M3399 2523 c-10 -12 -14 -55 -15 -167 l-1 -151 6 151 c4 106 10 156
20 167 7 10 11 17 8 17 -2 0 -11 -7 -18 -17z"/>
<path d="M3762 2500 c0 -19 2 -27 5 -17 2 9 2 25 0 35 -3 9 -5 1 -5 -18z"/>
<path d="M3084 2350 c0 -80 2 -112 3 -72 2 39 2 105 0 145 -1 39 -3 7 -3 -73z"/>
<path d="M1723 2275 c0 -38 2 -53 4 -32 2 20 2 52 0 70 -2 17 -4 1 -4 -38z"/>
<path d="M1235 2249 c-4 -6 -5 -12 -2 -15 2 -3 7 2 10 11 7 17 1 20 -8 4z"/>
<path d="M2222 2235 c0 -16 2 -22 5 -12 2 9 2 23 0 30 -3 6 -5 -1 -5 -18z"/>
<path d="M2542 2240 c0 -14 2 -19 5 -12 2 6 2 18 0 25 -3 6 -5 1 -5 -13z"/>
<path d="M3612 2240 c0 -14 2 -19 5 -12 2 6 2 18 0 25 -3 6 -5 1 -5 -13z"/>
<path d="M3966 2931 c-4 -5 3 -7 14 -4 23 6 26 13 6 13 -8 0 -17 -4 -20 -9z"/>
<path d="M1463 2753 c9 -2 23 -2 30 0 6 3 -1 5 -18 5 -16 0 -22 -2 -12 -5z"/>
<path d="M1476 2723 c-6 -14 -5 -15 5 -6 7 7 10 15 7 18 -3 3 -9 -2 -12 -12z"/>
<path d="M1421 2613 c-10 -26 -10 -27 4 -9 8 11 15 23 15 28 0 15 -7 8 -19
-19z"/>
<path d="M1366 2503 c-6 -14 -5 -15 5 -6 7 7 10 15 7 18 -3 3 -9 -2 -12 -12z"/>
<path d="M1316 2403 c-6 -14 -5 -15 5 -6 7 7 10 15 7 18 -3 3 -9 -2 -12 -12z"/>
</g>
</svg>
